<svg xmlns="http://www.w3.org/2000/svg" xmlns:xlink="http://www.w3.org/1999/xlink" width="28" height="28" version="1.1" viewBox="0 0 21 21"><g id="surface1"><rect width="21" height="21" x="0" y="0" style="fill:#0064d2;fill-opacity:1;stroke:none"/><path style="fill:none;stroke-width:3;stroke-linecap:butt;stroke-linejoin:miter;stroke:#fff;stroke-opacity:1;stroke-miterlimit:4" d="M 267.52381 118.190476 L 267.52381 72.666667 L 41.238095 27.047619 L 41.238095 472.857143 L 267.52381 427.333333 L 267.52381 381.714286" transform="matrix(0.0410156,0,0,0.0410156,0,0)"/><path style="stroke:none;fill-rule:nonzero;fill:#fff;fill-opacity:1" d="M 10.488281 9.050781 L 10.5 9.144531 C 10.457031 9.167969 10.34375 9.195312 10.160156 9.226562 C 10.003906 9.253906 9.910156 9.292969 9.867188 9.335938 L 9.804688 9.335938 L 9.796875 9.351562 C 9.789062 9.34375 9.738281 9.332031 9.648438 9.308594 C 9.5625 9.285156 9.511719 9.277344 9.503906 9.277344 C 9.492188 9.277344 9.417969 9.289062 9.285156 9.320312 C 9.257812 9.324219 9.238281 9.371094 9.230469 9.457031 C 9.230469 9.515625 9.226562 9.570312 9.21875 9.621094 C 9.210938 9.675781 9.195312 9.742188 9.175781 9.824219 C 9.167969 9.828125 9.125 9.851562 9.039062 9.890625 C 8.984375 9.914062 8.945312 9.949219 8.925781 9.992188 C 8.863281 9.984375 8.828125 9.984375 8.820312 9.984375 C 8.816406 9.984375 8.804688 9.984375 8.789062 9.992188 C 8.734375 10.019531 8.648438 10.070312 8.539062 10.136719 C 8.503906 10.171875 8.464844 10.207031 8.417969 10.246094 C 8.375 10.285156 8.339844 10.304688 8.308594 10.304688 L 8.210938 10.351562 L 8.210938 10.335938 C 8.199219 10.324219 8.1875 10.320312 8.179688 10.320312 L 8.167969 10.328125 L 8.152344 10.371094 C 8.035156 10.375 7.976562 10.433594 7.96875 10.550781 C 7.964844 10.664062 7.957031 10.777344 7.949219 10.890625 L 7.964844 10.949219 L 7.960938 10.992188 L 7.941406 11.019531 C 7.941406 11.035156 7.941406 11.058594 7.941406 11.09375 C 7.941406 11.128906 7.953125 11.152344 7.972656 11.171875 L 7.949219 11.238281 L 7.964844 11.378906 L 7.949219 11.414062 L 7.960938 11.457031 C 7.941406 11.664062 7.929688 11.878906 7.929688 12.101562 C 7.929688 12.242188 7.933594 12.390625 7.941406 12.546875 C 7.933594 12.507812 7.914062 12.277344 7.882812 11.851562 L 7.871094 12.253906 L 7.847656 12.269531 C 7.839844 12.296875 7.835938 12.324219 7.835938 12.347656 C 7.835938 12.457031 7.84375 12.574219 7.859375 12.699219 C 7.824219 12.65625 7.804688 12.574219 7.800781 12.457031 C 7.800781 12.335938 7.785156 12.25 7.757812 12.195312 L 7.738281 12.210938 L 7.734375 12.234375 L 7.726562 12.390625 C 7.726562 12.410156 7.730469 12.441406 7.734375 12.480469 L 7.738281 12.488281 L 7.746094 12.480469 C 7.746094 12.085938 7.71875 11.859375 7.664062 11.800781 C 7.664062 11.878906 7.65625 12.007812 7.636719 12.179688 C 7.625 12.152344 7.617188 12.089844 7.613281 11.992188 C 7.609375 11.910156 7.59375 11.847656 7.558594 11.808594 C 7.503906 12 7.476562 12.230469 7.476562 12.511719 C 7.410156 12.265625 7.367188 11.960938 7.347656 11.589844 C 7.335938 11.273438 7.320312 10.960938 7.308594 10.648438 C 7.230469 10.660156 7.109375 10.671875 6.953125 10.691406 C 6.953125 10.691406 6.917969 10.6875 6.84375 10.675781 C 6.8125 10.675781 6.78125 10.65625 6.75 10.617188 L 6.742188 10.503906 C 6.746094 10.488281 6.753906 10.476562 6.769531 10.464844 C 6.777344 10.457031 6.804688 10.449219 6.851562 10.449219 L 6.90625 10.414062 L 6.929688 10.378906 C 7.015625 10.347656 7.082031 10.3125 7.125 10.269531 C 7.140625 10.265625 7.171875 10.253906 7.222656 10.238281 C 7.257812 10.226562 7.285156 10.21875 7.308594 10.21875 L 7.308594 9.773438 C 7.261719 9.757812 7.238281 9.75 7.238281 9.75 C 7.203125 9.75 6.921875 9.820312 6.402344 9.964844 C 5.878906 10.105469 5.582031 10.1875 5.507812 10.210938 C 5.410156 10.25 5.339844 10.296875 5.300781 10.355469 L 5.253906 10.320312 L 5.195312 10.34375 C 5.132812 10.296875 5.105469 10.230469 5.105469 10.136719 C 5.105469 10.132812 5.105469 10.105469 5.109375 10.050781 C 5.144531 10.03125 5.199219 9.996094 5.269531 9.949219 C 5.40625 9.847656 5.566406 9.777344 5.753906 9.738281 C 5.925781 9.707031 6.097656 9.679688 6.273438 9.648438 C 6.28125 9.648438 6.34375 9.632812 6.457031 9.597656 C 6.546875 9.574219 6.617188 9.5625 6.664062 9.5625 C 6.691406 9.5625 6.710938 9.5625 6.726562 9.570312 C 6.75 9.542969 6.839844 9.515625 7 9.488281 C 7.207031 9.445312 7.308594 9.421875 7.308594 9.421875 C 7.308594 9.417969 7.308594 9.363281 7.308594 9.261719 C 7.308594 9.167969 7.335938 9.109375 7.394531 9.085938 L 7.40625 9.101562 L 7.421875 9.101562 C 7.429688 9.101562 7.449219 9.097656 7.476562 9.09375 C 7.503906 9.089844 7.527344 9.085938 7.542969 9.085938 L 7.542969 9.070312 L 7.699219 9.070312 L 7.714844 9.050781 L 7.703125 9 C 7.679688 8.976562 7.625 8.953125 7.542969 8.933594 C 7.480469 8.917969 7.417969 8.902344 7.355469 8.886719 C 7.3125 8.875 7.175781 8.816406 6.941406 8.710938 C 6.710938 8.605469 6.585938 8.542969 6.566406 8.523438 C 6.5 8.480469 6.457031 8.402344 6.433594 8.289062 L 6.441406 8.261719 C 6.449219 8.257812 6.460938 8.242188 6.480469 8.21875 L 6.523438 8.21875 L 6.546875 8.183594 L 6.589844 8.1875 L 6.59375 8.167969 C 6.589844 8.164062 6.589844 8.152344 6.589844 8.136719 L 6.589844 8.121094 C 6.65625 8.09375 6.722656 8.054688 6.789062 8 C 6.796875 7.988281 6.816406 7.964844 6.847656 7.929688 C 6.878906 7.894531 6.945312 7.875 7.054688 7.875 C 7.164062 7.875 7.347656 7.921875 7.597656 8.015625 C 7.652344 7.949219 7.734375 7.859375 7.847656 7.742188 C 7.917969 7.679688 7.992188 7.613281 8.070312 7.539062 C 8.148438 7.464844 8.207031 7.390625 8.246094 7.3125 L 8.1875 7.253906 C 8.132812 7.269531 8.066406 7.277344 7.996094 7.285156 C 7.949219 7.285156 7.882812 7.28125 7.792969 7.277344 C 7.707031 7.269531 7.644531 7.269531 7.609375 7.269531 C 7.542969 7.269531 7.410156 7.3125 7.210938 7.402344 C 7.191406 7.386719 7.175781 7.378906 7.15625 7.378906 C 7.132812 7.378906 7.09375 7.386719 7.042969 7.398438 C 6.996094 7.410156 6.957031 7.414062 6.933594 7.414062 C 6.882812 7.414062 6.824219 7.378906 6.757812 7.3125 C 6.691406 7.246094 6.660156 7.179688 6.660156 7.117188 C 6.660156 6.976562 6.671875 6.871094 6.695312 6.804688 C 6.71875 6.738281 6.761719 6.664062 6.820312 6.582031 C 6.875 6.515625 6.925781 6.445312 6.976562 6.378906 C 7.070312 6.214844 7.167969 6.046875 7.269531 5.882812 C 7.367188 5.714844 7.492188 5.578125 7.644531 5.464844 L 7.679688 5.480469 L 7.8125 5.4375 L 7.816406 5.445312 C 7.824219 5.445312 7.835938 5.445312 7.851562 5.445312 L 7.871094 5.472656 L 7.9375 5.4375 L 7.953125 5.445312 L 7.980469 5.453125 L 7.996094 5.445312 C 8 5.429688 8.003906 5.417969 8.011719 5.40625 C 8.019531 5.40625 8.027344 5.40625 8.039062 5.40625 C 8.046875 5.40625 8.054688 5.410156 8.0625 5.414062 L 8.074219 5.421875 L 8.085938 5.464844 L 8.15625 5.453125 C 8.253906 5.59375 8.300781 5.777344 8.300781 6.003906 C 8.300781 6.113281 8.269531 6.21875 8.207031 6.324219 C 8.144531 6.429688 8.085938 6.527344 8.027344 6.621094 C 8.339844 6.734375 8.527344 6.8125 8.59375 6.847656 C 8.828125 6.972656 8.957031 7.128906 8.984375 7.3125 C 8.953125 7.4375 8.886719 7.539062 8.777344 7.613281 C 8.726562 7.644531 8.621094 7.695312 8.46875 7.757812 C 8.261719 7.84375 8.074219 7.960938 7.914062 8.109375 C 8.140625 8.210938 8.367188 8.316406 8.597656 8.421875 C 8.753906 8.519531 8.945312 8.738281 9.171875 9.078125 C 9.386719 9.070312 9.574219 9.023438 9.738281 8.941406 L 9.804688 8.96875 L 9.828125 8.957031 C 9.867188 8.964844 10.019531 8.96875 10.28125 8.96875 C 10.367188 8.96875 10.4375 8.996094 10.488281 9.050781 Z M 8.191406 9.253906 L 8.34375 9.203125 C 8.277344 9.125 8.210938 9.085938 8.140625 9.078125 C 8.011719 9.070312 7.941406 9.0625 7.925781 9.058594 C 7.945312 9.070312 7.96875 9.105469 8 9.160156 C 8.027344 9.214844 8.054688 9.25 8.078125 9.269531 L 8.140625 9.246094 Z M 8.371094 9.472656 L 8.289062 9.472656 C 8.203125 9.472656 8.144531 9.496094 8.105469 9.546875 C 8.105469 9.605469 8.09375 9.695312 8.078125 9.8125 C 8.0625 9.933594 8.054688 10.019531 8.054688 10.078125 C 8.265625 9.871094 8.371094 9.667969 8.371094 9.472656 Z M 16.839844 12.152344 C 16.59375 12.011719 16.4375 11.921875 16.371094 11.890625 C 16.191406 11.796875 16.027344 11.734375 15.882812 11.707031 L 15.867188 11.691406 L 15.851562 11.699219 L 15.84375 11.714844 L 15.855469 11.734375 C 16.105469 11.828125 16.265625 11.890625 16.328125 11.917969 C 16.5 11.996094 16.644531 12.082031 16.769531 12.179688 C 16.722656 12.136719 16.644531 12.097656 16.539062 12.0625 C 16.433594 12.023438 16.359375 11.984375 16.316406 11.949219 L 16.265625 11.96875 L 16.257812 11.949219 C 16.246094 11.949219 16.234375 11.949219 16.226562 11.949219 L 16.214844 11.933594 C 16.175781 11.914062 16.035156 11.863281 15.792969 11.777344 C 15.550781 11.691406 15.417969 11.648438 15.398438 11.648438 C 15.378906 11.648438 15.363281 11.65625 15.351562 11.671875 C 15.328125 11.636719 15.300781 11.613281 15.265625 11.605469 C 15.203125 11.585938 15.171875 11.574219 15.171875 11.574219 L 15.140625 11.582031 C 15.09375 11.574219 15.023438 11.554688 14.925781 11.53125 C 14.882812 11.507812 14.800781 11.480469 14.679688 11.453125 L 14.671875 11.457031 L 14.660156 11.445312 L 14.644531 11.421875 L 14.628906 11.414062 L 14.605469 11.4375 C 14.53125 11.617188 14.445312 11.925781 14.347656 12.363281 C 14.398438 12.003906 14.472656 11.699219 14.566406 11.453125 L 14.550781 11.40625 C 14.460938 11.574219 14.40625 11.792969 14.378906 12.074219 L 14.378906 12.019531 C 14.378906 12.019531 14.347656 12.09375 14.289062 12.238281 C 14.3125 12.167969 14.339844 12.058594 14.378906 11.910156 L 14.355469 11.867188 C 14.339844 11.898438 14.304688 11.988281 14.257812 12.136719 C 14.289062 11.976562 14.335938 11.738281 14.402344 11.421875 C 14.355469 11.515625 14.308594 11.644531 14.265625 11.816406 C 14.234375 11.957031 14.199219 12.097656 14.164062 12.234375 L 14.355469 11.421875 C 14.339844 11.414062 14.320312 11.40625 14.304688 11.40625 C 14.253906 11.40625 14.199219 11.515625 14.140625 11.730469 C 14.09375 11.875 14.0625 12.011719 14.042969 12.136719 C 14.058594 12.074219 14.078125 11.953125 14.097656 11.773438 C 14.113281 11.613281 14.136719 11.492188 14.167969 11.414062 L 14.164062 11.398438 L 14.152344 11.390625 C 14.140625 11.398438 14.136719 11.40625 14.140625 11.414062 C 14.09375 11.476562 14.058594 11.570312 14.027344 11.6875 C 14.003906 11.78125 13.984375 11.878906 13.960938 11.976562 L 13.996094 11.765625 L 13.996094 11.742188 L 13.976562 11.707031 C 13.980469 11.707031 14.015625 11.601562 14.078125 11.390625 C 13.820312 11.34375 13.535156 11.320312 13.21875 11.320312 C 12.769531 11.320312 12.453125 11.332031 12.265625 11.355469 C 11.914062 11.402344 11.609375 11.5 11.359375 11.65625 L 11.328125 11.605469 C 11.261719 11.585938 11.199219 11.5625 11.136719 11.535156 C 11.074219 11.507812 11.03125 11.4375 11.007812 11.320312 L 11.027344 11.277344 L 11.019531 11.261719 L 11.027344 11.246094 L 11.027344 11.230469 C 11.023438 11.21875 11.019531 11.214844 11.019531 11.21875 C 11.03125 11.160156 11.058594 11.09375 11.105469 11.019531 L 11.105469 10.976562 L 11.113281 10.96875 C 11.117188 10.945312 11.132812 10.902344 11.152344 10.84375 C 11.148438 10.804688 11.15625 10.757812 11.179688 10.699219 L 11.179688 10.683594 C 11.234375 10.628906 11.351562 10.570312 11.519531 10.511719 C 11.648438 10.46875 11.773438 10.429688 11.902344 10.394531 C 11.941406 10.265625 11.960938 10.066406 11.960938 9.789062 C 11.960938 9.507812 11.914062 9.277344 11.820312 9.09375 C 11.769531 9.003906 11.679688 8.882812 11.550781 8.734375 C 11.457031 8.632812 11.40625 8.542969 11.40625 8.457031 C 11.421875 8.410156 11.460938 8.347656 11.519531 8.277344 L 11.527344 8.253906 C 11.535156 8.261719 11.542969 8.265625 11.550781 8.269531 L 11.566406 8.277344 C 11.570312 8.253906 11.59375 8.210938 11.632812 8.152344 L 11.683594 8.152344 L 11.6875 8.128906 L 11.699219 8.113281 C 11.722656 8.082031 11.765625 8.046875 11.832031 8.007812 L 11.835938 7.992188 C 11.90625 7.949219 11.945312 7.925781 11.949219 7.925781 C 12.128906 7.925781 12.296875 8.125 12.449219 8.523438 C 12.589844 8.875 12.660156 9.175781 12.660156 9.421875 C 12.660156 9.691406 12.613281 10.019531 12.523438 10.414062 C 12.558594 10.414062 12.613281 10.414062 12.683594 10.40625 C 12.753906 10.40625 12.808594 10.40625 12.84375 10.40625 C 12.972656 10.40625 13.066406 10.417969 13.125 10.4375 L 13.230469 10.414062 C 13.398438 10.023438 13.566406 9.632812 13.734375 9.238281 C 13.949219 8.769531 14.15625 8.414062 14.355469 8.183594 C 14.347656 8.105469 14.300781 8.015625 14.222656 7.917969 L 14.191406 7.917969 C 14.148438 7.96875 14.085938 8.046875 14 8.160156 C 13.988281 8.167969 13.980469 8.175781 13.972656 8.183594 C 13.964844 8.1875 13.949219 8.214844 13.925781 8.269531 L 13.917969 8.269531 C 13.878906 8.320312 13.828125 8.394531 13.769531 8.488281 C 13.636719 8.699219 13.53125 8.875 13.449219 9.019531 C 13.417969 9.050781 13.382812 9.097656 13.335938 9.160156 C 13.304688 9.222656 13.261719 9.308594 13.203125 9.414062 C 13.203125 9.410156 13.214844 9.371094 13.238281 9.296875 L 13.230469 9.28125 C 13.164062 9.382812 13.09375 9.53125 13.023438 9.738281 C 13.050781 9.660156 13.082031 9.550781 13.121094 9.40625 L 13.148438 9.386719 C 13.160156 9.328125 13.199219 9.234375 13.269531 9.101562 L 13.25 9.078125 C 13.207031 9.117188 13.171875 9.195312 13.144531 9.3125 L 13.160156 9.246094 C 13.121094 9.269531 13.0625 9.386719 12.988281 9.589844 C 13.070312 9.335938 13.160156 9.109375 13.257812 8.910156 C 13.253906 8.890625 13.25 8.882812 13.246094 8.882812 C 13.230469 8.882812 13.191406 8.945312 13.125 9.074219 C 13.058594 9.203125 13.023438 9.285156 13.019531 9.3125 C 13.023438 9.285156 13.039062 9.230469 13.066406 9.152344 C 13.089844 9.089844 13.101562 9.035156 13.101562 8.992188 L 13.046875 9.101562 C 13.074219 9.03125 13.105469 8.929688 13.144531 8.789062 C 13.097656 8.863281 13.046875 8.941406 13 9.015625 C 12.945312 9.105469 12.910156 9.191406 12.898438 9.277344 C 12.898438 9.238281 12.929688 9.070312 12.988281 8.78125 L 12.804688 9.210938 C 12.800781 9.128906 12.796875 9.097656 12.796875 9.121094 C 12.796875 9.082031 12.808594 9.050781 12.832031 9.019531 L 12.804688 8.984375 C 12.898438 8.710938 13.039062 8.417969 13.226562 8.101562 C 13.398438 7.835938 13.566406 7.5625 13.734375 7.292969 C 13.90625 7.019531 14.039062 6.8125 14.132812 6.671875 C 14.035156 6.671875 13.960938 6.679688 13.910156 6.699219 C 13.902344 6.695312 13.878906 6.699219 13.851562 6.707031 C 13.683594 6.648438 13.507812 6.550781 13.324219 6.414062 C 13.261719 6.382812 13.203125 6.347656 13.148438 6.320312 C 13.082031 6.269531 13.046875 6.214844 13.046875 6.152344 C 13.046875 6.132812 13.050781 6.109375 13.058594 6.085938 L 13.089844 6.050781 L 13.105469 6.042969 L 13.132812 6.050781 L 13.132812 6.011719 C 13.144531 6.007812 13.164062 6.011719 13.195312 6.019531 C 13.210938 6.011719 13.230469 5.992188 13.25 5.960938 C 13.375 5.875 13.476562 5.832031 13.554688 5.832031 C 13.601562 5.832031 13.671875 5.851562 13.765625 5.894531 C 13.859375 5.933594 13.929688 5.957031 13.976562 5.957031 C 14.082031 6.019531 14.273438 6.050781 14.550781 6.050781 C 14.675781 6.050781 14.832031 6.035156 15.023438 6.003906 C 15.25 5.96875 15.394531 5.921875 15.464844 5.875 C 15.484375 5.855469 15.515625 5.828125 15.5625 5.792969 C 15.570312 5.789062 15.617188 5.78125 15.699219 5.765625 C 15.785156 5.75 15.832031 5.742188 15.839844 5.742188 L 15.867188 5.738281 C 15.90625 5.75 15.953125 5.773438 16.015625 5.800781 C 16.023438 5.832031 16.046875 5.878906 16.078125 5.941406 L 16.066406 5.976562 L 16.09375 6.066406 C 16.082031 6.105469 16.0625 6.164062 16.035156 6.246094 L 16.023438 6.253906 C 16.011719 6.25 16 6.246094 15.988281 6.246094 C 15.988281 6.246094 15.96875 6.265625 15.929688 6.300781 C 15.914062 6.304688 15.890625 6.3125 15.863281 6.328125 L 15.851562 6.328125 L 15.839844 6.320312 L 15.828125 6.320312 C 15.816406 6.324219 15.804688 6.332031 15.792969 6.339844 C 15.777344 6.34375 15.761719 6.351562 15.742188 6.355469 L 15.730469 6.371094 L 15.636719 6.355469 C 15.621094 6.367188 15.542969 6.375 15.402344 6.386719 C 15.289062 6.390625 15.207031 6.425781 15.164062 6.488281 C 15.167969 6.554688 15.171875 6.601562 15.171875 6.621094 C 15.171875 6.707031 15.109375 6.8125 14.988281 6.933594 C 14.894531 7.027344 14.804688 7.117188 14.710938 7.210938 C 14.761719 7.273438 14.890625 7.488281 15.085938 7.851562 C 15.121094 7.789062 15.203125 7.667969 15.324219 7.492188 C 15.449219 7.3125 15.527344 7.210938 15.566406 7.175781 C 15.605469 7.144531 15.640625 7.128906 15.679688 7.128906 C 15.6875 7.128906 15.710938 7.132812 15.738281 7.140625 C 15.765625 7.148438 15.785156 7.152344 15.804688 7.152344 L 15.816406 7.144531 C 15.816406 7.15625 15.820312 7.167969 15.828125 7.1875 L 15.867188 7.1875 L 15.875 7.203125 C 15.878906 7.199219 15.886719 7.191406 15.898438 7.1875 L 15.910156 7.21875 L 16.007812 7.203125 L 16.015625 7.203125 C 16.023438 7.21875 16.035156 7.226562 16.050781 7.234375 C 16.066406 7.238281 16.09375 7.242188 16.132812 7.242188 L 16.167969 7.285156 L 16.207031 7.234375 L 16.238281 7.285156 C 16.277344 7.285156 16.300781 7.296875 16.308594 7.320312 C 16.273438 7.492188 16.238281 7.605469 16.199219 7.664062 C 16.117188 7.753906 16.035156 7.863281 15.953125 7.984375 C 15.890625 7.984375 15.820312 8.070312 15.730469 8.246094 L 15.691406 8.246094 C 15.621094 8.304688 15.570312 8.363281 15.535156 8.421875 C 15.46875 8.476562 15.386719 8.558594 15.285156 8.671875 C 15.332031 8.789062 15.355469 8.902344 15.351562 9.015625 C 15.679688 9.335938 16.019531 9.683594 16.371094 10.054688 C 16.382812 10.070312 16.394531 10.085938 16.40625 10.101562 C 16.421875 10.117188 16.425781 10.144531 16.421875 10.1875 C 16.230469 10.042969 16.132812 9.96875 16.132812 9.96875 L 16.125 9.984375 C 16.171875 10.042969 16.261719 10.128906 16.386719 10.246094 L 16.101562 10.035156 L 16.53125 10.441406 C 16.433594 10.367188 16.289062 10.269531 16.09375 10.160156 L 16.113281 10.21875 L 15.996094 10.144531 L 15.996094 10.167969 C 16.003906 10.195312 16.078125 10.28125 16.226562 10.421875 L 15.957031 10.203125 L 15.957031 10.238281 L 16.304688 10.574219 C 16.238281 10.523438 16.144531 10.441406 16.015625 10.328125 L 15.996094 10.355469 L 16.132812 10.503906 L 15.957031 10.355469 C 15.984375 10.425781 16.046875 10.496094 16.136719 10.574219 C 16.226562 10.652344 16.304688 10.703125 16.371094 10.722656 L 16.34375 10.75 C 16.011719 10.539062 15.632812 10.210938 15.210938 9.773438 C 15.167969 9.917969 15.121094 10.0625 15.074219 10.210938 C 15.019531 10.386719 14.960938 10.523438 14.902344 10.625 L 15.335938 10.75 C 15.230469 10.738281 15.082031 10.703125 14.894531 10.648438 C 14.886719 10.660156 14.882812 10.671875 14.878906 10.683594 L 14.890625 10.707031 C 15.414062 10.804688 15.953125 10.988281 16.5 11.261719 C 16.402344 11.238281 16.144531 11.140625 15.730469 10.976562 C 15.417969 10.851562 15.15625 10.785156 14.945312 10.785156 C 14.914062 10.785156 14.878906 10.789062 14.847656 10.792969 C 14.90625 10.804688 15.074219 10.84375 15.351562 10.917969 C 15.808594 11.042969 16.210938 11.207031 16.5625 11.40625 C 16.464844 11.347656 16.308594 11.277344 16.089844 11.195312 C 15.855469 11.113281 15.695312 11.070312 15.605469 11.070312 L 15.71875 11.117188 C 15.488281 11.042969 15.34375 11.003906 15.289062 11.003906 L 15.273438 11.003906 L 15.253906 11.019531 C 15.492188 11.097656 15.734375 11.179688 15.976562 11.261719 C 16.253906 11.355469 16.484375 11.464844 16.667969 11.589844 L 16.5 11.511719 L 16.476562 11.523438 C 16.46875 11.519531 16.464844 11.511719 16.460938 11.5 C 16.460938 11.488281 16.453125 11.480469 16.441406 11.480469 C 16.402344 11.457031 16.3125 11.417969 16.171875 11.359375 C 16.035156 11.304688 15.949219 11.277344 15.917969 11.277344 C 15.898438 11.277344 15.886719 11.28125 15.875 11.292969 C 15.941406 11.324219 16.039062 11.378906 16.167969 11.453125 L 16.125 11.480469 L 16.171875 11.511719 L 15.796875 11.34375 L 15.777344 11.304688 L 15.765625 11.3125 C 15.757812 11.328125 15.75 11.335938 15.742188 11.34375 C 15.382812 11.21875 15.144531 11.160156 15.035156 11.160156 C 15.03125 11.164062 15.027344 11.167969 15.027344 11.171875 C 15.027344 11.179688 15.03125 11.183594 15.039062 11.1875 C 15.046875 11.195312 15.054688 11.191406 15.058594 11.179688 C 15.101562 11.210938 15.179688 11.234375 15.289062 11.253906 C 15.421875 11.285156 15.503906 11.304688 15.539062 11.320312 L 15.558594 11.34375 L 15.464844 11.34375 L 15.75 11.453125 L 15.765625 11.496094 C 15.9375 11.5625 16.191406 11.679688 16.523438 11.847656 C 16.414062 11.792969 16.25 11.714844 16.03125 11.609375 C 15.960938 11.59375 15.867188 11.554688 15.742188 11.503906 C 15.660156 11.492188 15.550781 11.464844 15.414062 11.421875 L 15.386719 11.4375 C 15.265625 11.347656 15.144531 11.308594 15.015625 11.320312 L 15.007812 11.347656 C 15.183594 11.382812 15.332031 11.433594 15.449219 11.496094 C 15.484375 11.488281 15.5 11.488281 15.5 11.488281 C 15.582031 11.488281 15.691406 11.519531 15.820312 11.582031 C 15.980469 11.65625 16.085938 11.699219 16.136719 11.714844 C 16.175781 11.742188 16.242188 11.777344 16.332031 11.808594 C 16.402344 11.847656 16.492188 11.898438 16.601562 11.960938 C 16.609375 11.96875 16.625 11.972656 16.644531 11.976562 C 16.660156 12.007812 16.726562 12.066406 16.839844 12.152344 Z M 12.554688 6.953125 C 12.53125 7.019531 12.507812 7.109375 12.476562 7.234375 C 12.414062 7.234375 12.347656 7.304688 12.273438 7.445312 L 12.25 7.4375 C 12.246094 7.441406 12.238281 7.445312 12.222656 7.453125 L 12.21875 7.4375 L 12.140625 7.503906 C 12.035156 7.480469 11.949219 7.414062 11.886719 7.3125 C 11.824219 7.210938 11.796875 7.09375 11.796875 6.960938 C 11.796875 6.960938 11.800781 6.882812 11.8125 6.722656 C 11.847656 6.683594 11.886719 6.644531 11.925781 6.605469 C 11.976562 6.546875 11.996094 6.5 11.988281 6.46875 C 12.019531 6.425781 12.074219 6.40625 12.152344 6.40625 C 12.164062 6.40625 12.175781 6.410156 12.1875 6.414062 C 12.210938 6.433594 12.246094 6.445312 12.289062 6.445312 C 12.332031 6.445312 12.367188 6.449219 12.386719 6.460938 C 12.4375 6.488281 12.476562 6.5625 12.5 6.6875 C 12.519531 6.773438 12.535156 6.863281 12.554688 6.953125 Z M 15.652344 11.371094 C 15.636719 11.367188 15.613281 11.359375 15.582031 11.347656 C 15.585938 11.347656 15.589844 11.347656 15.59375 11.34375 C 15.597656 11.34375 15.601562 11.34375 15.605469 11.34375 L 15.628906 11.34375 C 15.625 11.34375 15.625 11.34375 15.625 11.347656 L 15.628906 11.347656 L 15.636719 11.355469 C 15.640625 11.355469 15.644531 11.363281 15.652344 11.371094 Z M 16.597656 12.003906 L 16.632812 12.003906 C 16.625 11.996094 16.613281 11.988281 16.597656 11.976562 Z M 15.171875 11.003906 L 15.175781 11.003906 L 15.171875 10.976562 L 15.128906 10.976562 C 15.128906 10.988281 15.132812 10.996094 15.140625 11.003906 L 15.148438 10.992188 Z M 14.53125 8.964844 L 14.53125 8.773438 C 14.476562 8.8125 14.355469 8.964844 14.164062 9.234375 C 13.988281 9.476562 13.871094 9.644531 13.816406 9.738281 C 13.765625 9.808594 13.6875 9.914062 13.585938 10.054688 C 13.546875 10.140625 13.480469 10.257812 13.386719 10.414062 C 13.582031 10.4375 13.875 10.484375 14.265625 10.546875 C 14.414062 10.140625 14.496094 9.8125 14.507812 9.554688 C 14.390625 9.644531 14.273438 9.773438 14.164062 9.941406 C 14.070312 10.089844 13.976562 10.242188 13.882812 10.394531 L 13.890625 10.34375 L 13.835938 10.4375 C 13.832031 10.417969 13.828125 10.390625 13.828125 10.355469 C 13.828125 10.328125 13.839844 10.269531 13.859375 10.1875 L 13.777344 10.421875 C 13.777344 10.128906 14.011719 9.695312 14.480469 9.121094 L 14.507812 9.144531 C 14.523438 9.085938 14.53125 9.027344 14.53125 8.964844 Z M 14.21875 10.574219 L 14.234375 10.5625 L 14 10.539062 L 14 10.5625 C 14.023438 10.5625 14.058594 10.566406 14.097656 10.570312 C 14.140625 10.578125 14.171875 10.582031 14.191406 10.582031 Z M 14.21875 10.574219"/><path style="stroke:none;fill-rule:nonzero;fill:#fff;fill-opacity:1" d="M 3.710938 13.046875 C 3.816406 13.058594 3.890625 13.074219 3.933594 13.097656 C 3.933594 13.109375 3.921875 13.125 3.898438 13.144531 C 3.882812 13.15625 3.871094 13.167969 3.863281 13.175781 C 3.84375 13.210938 3.816406 13.25 3.78125 13.292969 L 4.226562 13.292969 C 4.3125 13.292969 4.382812 13.285156 4.433594 13.273438 C 4.402344 13.328125 4.355469 13.40625 4.296875 13.511719 C 4.265625 13.582031 4.238281 13.632812 4.21875 13.667969 L 4.425781 13.667969 C 4.511719 13.667969 4.578125 13.664062 4.621094 13.648438 C 4.621094 13.65625 4.621094 13.667969 4.621094 13.6875 C 4.613281 13.738281 4.613281 13.796875 4.613281 13.863281 L 4.613281 14.035156 L 4.675781 14.035156 C 4.753906 14.035156 4.820312 14.03125 4.875 14.019531 L 4.875 14.195312 C 4.820312 14.1875 4.753906 14.183594 4.675781 14.183594 L 4.613281 14.183594 L 4.613281 14.484375 C 4.613281 14.582031 4.617188 14.667969 4.625 14.738281 L 4.464844 14.738281 C 4.472656 14.695312 4.472656 14.648438 4.46875 14.589844 L 4.089844 14.589844 L 4.089844 14.867188 C 4.117188 15.03125 4.015625 15.105469 3.777344 15.085938 C 3.765625 15.011719 3.742188 14.941406 3.710938 14.878906 C 3.859375 14.90625 3.9375 14.894531 3.945312 14.84375 L 3.945312 14.589844 L 3.6875 14.589844 C 3.574219 14.589844 3.476562 14.59375 3.386719 14.605469 L 3.386719 14.414062 C 3.476562 14.429688 3.578125 14.4375 3.695312 14.4375 L 3.945312 14.4375 L 3.945312 14.183594 L 3.488281 14.183594 C 3.378906 14.183594 3.289062 14.191406 3.226562 14.203125 L 3.226562 14.011719 C 3.28125 14.027344 3.367188 14.035156 3.480469 14.035156 L 3.945312 14.035156 L 3.945312 13.816406 L 3.71875 13.816406 C 3.660156 13.816406 3.605469 13.820312 3.554688 13.824219 C 3.53125 13.824219 3.511719 13.824219 3.496094 13.824219 L 3.496094 13.6875 C 3.464844 13.738281 3.417969 13.789062 3.359375 13.84375 C 3.351562 13.839844 3.335938 13.828125 3.316406 13.808594 C 3.277344 13.773438 3.246094 13.746094 3.21875 13.722656 C 3.414062 13.582031 3.578125 13.355469 3.710938 13.046875 Z M 4.0625 13.660156 L 4.191406 13.429688 L 3.703125 13.429688 C 3.699219 13.4375 3.640625 13.511719 3.527344 13.648438 C 3.585938 13.65625 3.652344 13.660156 3.71875 13.660156 Z M 4.46875 13.808594 L 4.089844 13.808594 L 4.089844 14.035156 L 4.46875 14.035156 Z M 4.46875 14.4375 L 4.46875 14.183594 L 4.089844 14.183594 L 4.089844 14.4375 Z M 5.226562 13.25 L 5.226562 13.082031 C 5.296875 13.09375 5.414062 13.097656 5.585938 13.097656 L 6.195312 13.097656 C 6.382812 13.097656 6.496094 13.09375 6.523438 13.082031 L 6.523438 13.238281 C 6.503906 13.226562 6.398438 13.222656 6.203125 13.222656 L 5.945312 13.222656 L 5.945312 13.328125 L 6.378906 13.328125 C 6.550781 13.328125 6.648438 13.320312 6.667969 13.308594 C 6.65625 13.328125 6.652344 13.386719 6.652344 13.484375 C 6.652344 13.554688 6.65625 13.605469 6.667969 13.632812 L 6.507812 13.632812 C 6.515625 13.617188 6.515625 13.550781 6.515625 13.441406 L 5.945312 13.441406 L 5.945312 13.554688 C 5.945312 13.707031 5.949219 13.792969 5.957031 13.816406 L 5.800781 13.816406 C 5.8125 13.769531 5.816406 13.683594 5.816406 13.554688 L 5.816406 13.441406 L 5.25 13.441406 C 5.25 13.550781 5.25 13.628906 5.257812 13.667969 L 5.105469 13.667969 C 5.117188 13.628906 5.121094 13.570312 5.121094 13.492188 C 5.121094 13.421875 5.117188 13.363281 5.105469 13.308594 C 5.148438 13.320312 5.257812 13.328125 5.4375 13.328125 L 5.816406 13.328125 L 5.816406 13.222656 L 5.585938 13.222656 C 5.40625 13.222656 5.285156 13.230469 5.226562 13.25 Z M 6.445312 13.519531 L 6.445312 13.648438 C 6.441406 13.640625 6.375 13.632812 6.246094 13.632812 C 6.121094 13.632812 6.046875 13.640625 6.023438 13.648438 L 6.023438 13.519531 C 6.0625 13.53125 6.132812 13.535156 6.238281 13.535156 C 6.367188 13.535156 6.4375 13.53125 6.445312 13.519531 Z M 5.335938 13.644531 L 5.335938 13.519531 C 5.359375 13.53125 5.421875 13.535156 5.519531 13.535156 C 5.636719 13.535156 5.707031 13.53125 5.738281 13.519531 L 5.738281 13.644531 C 5.722656 13.636719 5.652344 13.632812 5.527344 13.632812 C 5.410156 13.632812 5.34375 13.636719 5.335938 13.644531 Z M 5.738281 13.695312 L 5.738281 13.816406 C 5.707031 13.8125 5.636719 13.808594 5.527344 13.808594 C 5.410156 13.808594 5.34375 13.8125 5.335938 13.816406 L 5.335938 13.695312 C 5.363281 13.707031 5.429688 13.710938 5.527344 13.710938 C 5.628906 13.710938 5.699219 13.707031 5.738281 13.695312 Z M 6.445312 13.703125 L 6.445312 13.835938 C 6.445312 13.824219 6.378906 13.816406 6.246094 13.816406 C 6.140625 13.816406 6.066406 13.824219 6.03125 13.835938 L 6.03125 13.703125 C 6.058594 13.714844 6.128906 13.722656 6.246094 13.722656 C 6.355469 13.722656 6.421875 13.714844 6.445312 13.703125 Z M 5.265625 13.851562 C 5.34375 13.851562 5.390625 13.859375 5.40625 13.871094 C 5.40625 13.875 5.40625 13.882812 5.402344 13.886719 C 5.390625 13.917969 5.386719 13.945312 5.386719 13.976562 L 5.664062 13.976562 C 5.664062 13.945312 5.664062 13.910156 5.664062 13.871094 C 5.746094 13.871094 5.785156 13.875 5.785156 13.886719 C 5.785156 13.894531 5.785156 13.898438 5.777344 13.90625 C 5.773438 13.921875 5.773438 13.941406 5.773438 13.964844 C 5.839844 13.964844 5.890625 13.964844 5.929688 13.957031 L 5.929688 14.089844 C 5.910156 14.078125 5.859375 14.070312 5.773438 14.070312 C 5.773438 14.175781 5.777344 14.246094 5.785156 14.28125 C 5.757812 14.269531 5.6875 14.265625 5.570312 14.265625 L 5.570312 14.359375 L 5.664062 14.359375 C 5.746094 14.359375 5.820312 14.355469 5.886719 14.34375 C 5.871094 14.402344 5.863281 14.457031 5.863281 14.507812 C 5.863281 14.601562 5.871094 14.667969 5.886719 14.703125 C 5.839844 14.683594 5.765625 14.679688 5.664062 14.683594 L 5.570312 14.683594 L 5.570312 14.78125 L 5.652344 14.78125 C 5.75 14.78125 5.820312 14.773438 5.863281 14.765625 L 5.863281 14.902344 C 5.828125 14.890625 5.753906 14.886719 5.652344 14.886719 L 5.578125 14.886719 C 5.578125 15.003906 5.582031 15.0625 5.585938 15.070312 L 5.457031 15.070312 C 5.46875 15.054688 5.472656 14.992188 5.472656 14.886719 L 5.386719 14.886719 C 5.246094 14.886719 5.152344 14.890625 5.101562 14.902344 L 5.101562 14.765625 C 5.164062 14.773438 5.257812 14.78125 5.378906 14.78125 L 5.472656 14.78125 L 5.472656 14.683594 L 5.378906 14.683594 C 5.289062 14.679688 5.21875 14.683594 5.171875 14.703125 C 5.179688 14.671875 5.183594 14.609375 5.183594 14.515625 C 5.183594 14.414062 5.179688 14.355469 5.171875 14.34375 C 5.234375 14.355469 5.3125 14.359375 5.40625 14.359375 L 5.476562 14.359375 L 5.476562 14.265625 C 5.355469 14.265625 5.28125 14.269531 5.257812 14.28125 C 5.265625 14.230469 5.269531 14.160156 5.269531 14.070312 C 5.179688 14.070312 5.121094 14.078125 5.09375 14.089844 L 5.09375 13.957031 C 5.113281 13.96875 5.171875 13.976562 5.269531 13.976562 C 5.277344 13.921875 5.273438 13.882812 5.265625 13.851562 Z M 6.582031 13.929688 C 6.570312 13.976562 6.566406 14.09375 6.566406 14.28125 L 6.566406 14.867188 C 6.59375 15.003906 6.515625 15.074219 6.332031 15.078125 C 6.324219 15.007812 6.308594 14.949219 6.28125 14.902344 C 6.390625 14.921875 6.441406 14.90625 6.4375 14.859375 L 6.4375 14.667969 L 6.109375 14.667969 C 6.085938 14.828125 6.035156 14.96875 5.964844 15.085938 C 5.9375 15.058594 5.886719 15.035156 5.816406 15.019531 C 5.945312 14.90625 6.003906 14.675781 6 14.324219 C 6 14.308594 6 14.28125 6 14.246094 C 6.003906 14.078125 6 13.972656 5.988281 13.929688 C 6.054688 13.941406 6.160156 13.949219 6.300781 13.949219 C 6.425781 13.949219 6.519531 13.941406 6.582031 13.929688 Z M 6.4375 14.0625 L 6.128906 14.0625 L 6.128906 14.246094 L 6.4375 14.246094 Z M 5.664062 14.167969 L 5.664062 14.070312 L 5.378906 14.070312 L 5.378906 14.167969 Z M 6.4375 14.351562 L 6.128906 14.351562 L 6.121094 14.546875 L 6.4375 14.546875 Z M 5.757812 14.589844 L 5.757812 14.457031 L 5.570312 14.457031 L 5.570312 14.589844 Z M 5.476562 14.589844 L 5.476562 14.457031 L 5.292969 14.457031 L 5.292969 14.589844 Z M 7.539062 13.089844 C 7.660156 13.101562 7.714844 13.113281 7.710938 13.125 C 7.714844 13.136719 7.714844 13.15625 7.703125 13.175781 C 7.695312 13.199219 7.691406 13.21875 7.691406 13.230469 L 7.691406 13.695312 L 8.011719 13.695312 L 8.011719 13.265625 C 8.011719 13.1875 8.011719 13.140625 8.003906 13.117188 C 8.105469 13.117188 8.167969 13.128906 8.191406 13.152344 C 8.191406 13.15625 8.1875 13.167969 8.175781 13.1875 C 8.160156 13.222656 8.15625 13.25 8.15625 13.273438 L 8.15625 13.695312 L 8.246094 13.695312 C 8.289062 13.695312 8.351562 13.691406 8.425781 13.6875 C 8.488281 13.679688 8.53125 13.675781 8.554688 13.675781 L 8.554688 13.898438 C 8.550781 13.898438 8.546875 13.898438 8.542969 13.898438 C 8.414062 13.878906 8.316406 13.871094 8.246094 13.871094 L 8.15625 13.871094 L 8.15625 14.324219 C 8.15625 14.378906 8.164062 14.46875 8.183594 14.597656 C 8.109375 14.582031 8.019531 14.570312 7.917969 14.570312 L 7.761719 14.570312 C 7.6875 14.570312 7.613281 14.582031 7.539062 14.597656 C 7.542969 14.480469 7.546875 14.386719 7.546875 14.316406 L 7.546875 13.871094 L 7.289062 13.871094 L 7.289062 14.824219 L 8.054688 14.824219 C 8.160156 14.824219 8.28125 14.820312 8.414062 14.808594 L 8.414062 15 C 8.316406 14.996094 8.195312 14.988281 8.046875 14.984375 L 7.117188 14.984375 C 7.128906 14.820312 7.132812 14.542969 7.140625 14.160156 C 7.140625 14.035156 7.140625 13.941406 7.140625 13.871094 L 7.101562 13.871094 C 7.023438 13.871094 6.9375 13.875 6.851562 13.886719 L 6.851562 13.667969 C 6.949219 13.679688 7.03125 13.6875 7.101562 13.6875 L 7.140625 13.6875 L 7.140625 13.386719 C 7.140625 13.3125 7.132812 13.257812 7.125 13.222656 C 7.246094 13.222656 7.304688 13.230469 7.308594 13.25 C 7.316406 13.257812 7.3125 13.28125 7.296875 13.316406 C 7.292969 13.335938 7.289062 13.347656 7.289062 13.351562 L 7.289062 13.6875 L 7.546875 13.6875 L 7.546875 13.230469 C 7.546875 13.195312 7.542969 13.148438 7.539062 13.089844 Z M 8.011719 14.394531 L 8.011719 13.871094 L 7.691406 13.871094 L 7.691406 14.394531 Z M 9.457031 13.273438 L 9.085938 13.273438 L 9.085938 13.519531 L 9.457031 13.519531 Z M 10.003906 13.273438 L 9.609375 13.273438 L 9.609375 13.519531 L 10.003906 13.519531 Z M 9.457031 13.660156 L 9.085938 13.660156 L 9.085938 13.898438 L 9.457031 13.898438 Z M 10.003906 13.660156 L 9.609375 13.660156 L 9.609375 13.898438 L 10.003906 13.898438 Z M 8.929688 13.109375 C 9.015625 13.121094 9.09375 13.125 9.171875 13.125 L 9.859375 13.125 C 10.007812 13.125 10.105469 13.121094 10.160156 13.117188 C 10.148438 13.199219 10.144531 13.261719 10.144531 13.308594 L 10.144531 13.808594 C 10.140625 13.886719 10.144531 13.96875 10.160156 14.0625 C 10.097656 14.046875 10.039062 14.039062 9.988281 14.042969 L 9.816406 14.042969 C 9.921875 14.195312 10.117188 14.289062 10.402344 14.316406 C 10.351562 14.371094 10.3125 14.4375 10.289062 14.527344 C 10.148438 14.480469 10.019531 14.417969 9.894531 14.335938 L 9.894531 14.84375 C 9.894531 14.90625 9.898438 14.976562 9.910156 15.050781 L 9.738281 15.050781 C 9.746094 14.96875 9.75 14.90625 9.75 14.859375 L 9.75 14.4375 C 9.75 14.394531 9.746094 14.335938 9.738281 14.273438 C 9.792969 14.273438 9.832031 14.273438 9.84375 14.273438 C 9.8125 14.25 9.75 14.171875 9.664062 14.042969 L 9.429688 14.042969 C 9.382812 14.101562 9.328125 14.164062 9.265625 14.230469 C 9.371094 14.230469 9.421875 14.242188 9.421875 14.265625 C 9.421875 14.265625 9.417969 14.265625 9.414062 14.273438 C 9.394531 14.308594 9.382812 14.347656 9.378906 14.394531 C 9.378906 14.738281 9.242188 14.960938 8.964844 15.0625 C 8.945312 15.003906 8.902344 14.949219 8.835938 14.902344 C 9.125 14.875 9.261719 14.660156 9.234375 14.265625 C 9.101562 14.371094 8.960938 14.460938 8.8125 14.535156 C 8.789062 14.484375 8.742188 14.429688 8.671875 14.371094 C 8.890625 14.328125 9.085938 14.21875 9.265625 14.042969 L 9.121094 14.042969 C 9.070312 14.039062 9.003906 14.046875 8.921875 14.0625 C 8.933594 13.964844 8.941406 13.878906 8.941406 13.808594 L 8.941406 13.292969 C 8.941406 13.25 8.9375 13.1875 8.929688 13.109375 Z M 11.640625 13.214844 L 11.796875 13.144531 C 11.855469 13.285156 11.902344 13.433594 11.941406 13.589844 L 11.769531 13.644531 C 11.738281 13.484375 11.695312 13.339844 11.640625 13.214844 Z M 12.042969 13.378906 L 12.042969 13.1875 C 12.113281 13.199219 12.195312 13.203125 12.292969 13.203125 L 12.792969 13.203125 C 12.898438 13.203125 12.984375 13.199219 13.058594 13.1875 L 13.058594 13.378906 C 13.007812 13.375 12.921875 13.367188 12.792969 13.363281 L 12.6875 13.363281 C 12.605469 13.445312 12.539062 13.503906 12.492188 13.546875 C 12.59375 13.703125 12.65625 13.828125 12.6875 13.921875 C 12.808594 13.765625 12.898438 13.617188 12.949219 13.484375 C 13.066406 13.574219 13.121094 13.625 13.117188 13.644531 C 13.117188 13.648438 13.109375 13.652344 13.09375 13.660156 C 13.058594 13.675781 13.035156 13.699219 13.015625 13.722656 C 13.007812 13.726562 13 13.738281 12.984375 13.757812 C 12.890625 13.878906 12.824219 13.957031 12.785156 13.992188 C 12.914062 14.101562 13.035156 14.230469 13.144531 14.371094 C 13.101562 14.394531 13.054688 14.441406 13.007812 14.507812 C 13.003906 14.503906 13 14.496094 12.992188 14.484375 C 12.917969 14.335938 12.820312 14.191406 12.707031 14.042969 C 12.742188 14.265625 12.734375 14.445312 12.6875 14.578125 C 12.644531 14.683594 12.542969 14.75 12.390625 14.769531 C 12.367188 14.691406 12.34375 14.621094 12.3125 14.5625 C 12.390625 14.566406 12.457031 14.554688 12.515625 14.527344 C 12.574219 14.472656 12.601562 14.332031 12.585938 14.097656 C 12.46875 14.265625 12.304688 14.429688 12.089844 14.589844 C 12.0625 14.535156 12.023438 14.488281 11.96875 14.449219 C 12.171875 14.378906 12.363281 14.207031 12.550781 13.941406 C 12.542969 13.921875 12.53125 13.894531 12.515625 13.851562 C 12.507812 13.835938 12.503906 13.824219 12.5 13.816406 C 12.390625 13.96875 12.253906 14.101562 12.089844 14.210938 C 12.054688 14.160156 12.011719 14.113281 11.96875 14.078125 C 12.121094 14.019531 12.28125 13.898438 12.449219 13.710938 C 12.441406 13.675781 12.421875 13.644531 12.390625 13.617188 C 12.25 13.726562 12.148438 13.796875 12.089844 13.824219 C 12.0625 13.785156 12.023438 13.734375 11.96875 13.675781 C 12.15625 13.628906 12.335938 13.527344 12.515625 13.363281 L 12.292969 13.363281 C 12.207031 13.363281 12.121094 13.367188 12.042969 13.378906 Z M 11.5625 14.011719 L 11.5625 13.816406 C 11.667969 13.824219 11.785156 13.824219 11.914062 13.816406 C 11.917969 13.816406 11.917969 13.820312 11.917969 13.824219 C 11.910156 13.894531 11.90625 13.960938 11.90625 14.019531 L 11.90625 14.65625 C 11.925781 14.65625 11.957031 14.671875 12.003906 14.703125 C 12.078125 14.75 12.140625 14.777344 12.191406 14.789062 C 12.292969 14.8125 12.441406 14.824219 12.640625 14.816406 C 12.824219 14.808594 13.003906 14.792969 13.179688 14.765625 C 13.121094 14.832031 13.089844 14.910156 13.085938 14.992188 C 13.070312 14.992188 13.042969 14.992188 12.992188 14.992188 C 12.644531 14.996094 12.394531 14.984375 12.242188 14.957031 C 12.160156 14.9375 12.066406 14.902344 11.953125 14.851562 C 11.898438 14.820312 11.863281 14.808594 11.847656 14.808594 C 11.804688 14.8125 11.753906 14.878906 11.699219 15 L 11.542969 14.894531 C 11.589844 14.820312 11.660156 14.742188 11.761719 14.667969 L 11.761719 13.992188 C 11.714844 13.992188 11.648438 14 11.5625 14.011719 Z M 14.109375 13.097656 L 14.296875 13.046875 C 14.320312 13.105469 14.339844 13.1875 14.359375 13.292969 L 14.746094 13.292969 C 14.8125 13.285156 14.890625 13.277344 14.976562 13.265625 L 14.976562 13.441406 C 14.945312 13.433594 14.894531 13.433594 14.816406 13.441406 C 14.789062 13.441406 14.769531 13.441406 14.761719 13.441406 L 14.480469 13.441406 L 14.480469 13.644531 L 14.738281 13.644531 C 14.777344 13.644531 14.828125 13.632812 14.890625 13.617188 C 14.878906 13.691406 14.878906 13.746094 14.882812 13.773438 L 14.882812 14.011719 C 14.882812 14.058594 14.886719 14.113281 14.898438 14.183594 C 14.835938 14.179688 14.78125 14.175781 14.738281 14.175781 L 14.503906 14.175781 L 14.503906 14.464844 C 14.628906 14.417969 14.746094 14.347656 14.855469 14.253906 C 14.9375 14.347656 14.972656 14.40625 14.96875 14.429688 C 14.96875 14.4375 14.957031 14.4375 14.933594 14.4375 C 14.910156 14.445312 14.894531 14.449219 14.882812 14.449219 C 14.878906 14.449219 14.871094 14.453125 14.863281 14.457031 C 14.691406 14.542969 14.570312 14.597656 14.503906 14.613281 L 14.503906 14.78125 C 14.5 14.839844 14.546875 14.867188 14.648438 14.867188 C 14.792969 14.898438 14.867188 14.8125 14.867188 14.613281 C 14.898438 14.667969 14.953125 14.707031 15.03125 14.738281 C 15.003906 14.953125 14.921875 15.050781 14.789062 15.027344 L 14.539062 15.027344 C 14.402344 15.042969 14.339844 14.976562 14.359375 14.824219 L 14.359375 14.175781 L 13.988281 14.175781 L 13.988281 14.40625 L 14.074219 14.40625 C 14.109375 14.40625 14.171875 14.398438 14.265625 14.386719 L 14.265625 14.5625 C 14.210938 14.550781 14.144531 14.546875 14.074219 14.546875 L 13.988281 14.546875 L 13.988281 14.851562 C 14.074219 14.816406 14.15625 14.761719 14.238281 14.691406 C 14.226562 14.773438 14.226562 14.839844 14.238281 14.886719 C 14.144531 14.921875 14.023438 14.992188 13.875 15.097656 L 13.792969 14.929688 C 13.832031 14.914062 13.851562 14.878906 13.851562 14.832031 L 13.851562 14.175781 L 13.6875 14.175781 C 13.660156 14.574219 13.597656 14.863281 13.5 15.042969 C 13.46875 14.996094 13.417969 14.957031 13.351562 14.921875 C 13.484375 14.769531 13.550781 14.402344 13.542969 13.816406 L 13.542969 13.441406 C 13.542969 13.371094 13.539062 13.316406 13.523438 13.273438 C 13.542969 13.273438 13.570312 13.277344 13.609375 13.285156 C 13.652344 13.285156 13.679688 13.285156 13.6875 13.292969 L 14.195312 13.292969 C 14.175781 13.210938 14.148438 13.144531 14.109375 13.097656 Z M 14.339844 13.441406 L 14.089844 13.441406 L 14.089844 13.644531 L 14.339844 13.644531 Z M 13.953125 13.441406 L 13.6875 13.441406 L 13.6875 13.644531 L 13.953125 13.644531 Z M 13.953125 14.042969 L 13.953125 13.78125 L 13.695312 13.78125 C 13.695312 13.882812 13.691406 13.96875 13.6875 14.042969 Z M 14.339844 14.042969 L 14.339844 13.78125 L 14.089844 13.78125 L 14.089844 14.042969 Z M 14.738281 13.78125 L 14.480469 13.78125 L 14.480469 14.042969 L 14.738281 14.042969 Z M 15.976562 13.054688 C 16.074219 13.0625 16.140625 13.082031 16.179688 13.117188 C 16.179688 13.128906 16.167969 13.136719 16.148438 13.144531 C 16.136719 13.15625 16.125 13.164062 16.121094 13.171875 C 16.285156 13.519531 16.542969 13.722656 16.894531 13.78125 C 16.839844 13.847656 16.808594 13.921875 16.792969 14.011719 C 16.726562 13.988281 16.644531 13.945312 16.542969 13.886719 L 16.542969 14.027344 C 16.539062 14.027344 16.527344 14.027344 16.515625 14.027344 C 16.449219 14.015625 16.375 14.011719 16.300781 14.011719 L 16.121094 14.011719 L 16.121094 14.324219 L 16.363281 14.324219 C 16.449219 14.324219 16.53125 14.320312 16.605469 14.308594 C 16.621094 14.300781 16.632812 14.296875 16.636719 14.296875 L 16.636719 14.5 C 16.636719 14.5 16.632812 14.5 16.621094 14.5 C 16.550781 14.488281 16.464844 14.484375 16.371094 14.484375 L 16.121094 14.484375 L 16.121094 14.851562 L 16.464844 14.851562 C 16.570312 14.851562 16.664062 14.84375 16.742188 14.832031 C 16.757812 14.832031 16.765625 14.832031 16.773438 14.832031 L 16.773438 15.027344 C 16.765625 15.027344 16.757812 15.027344 16.742188 15.027344 C 16.667969 15.015625 16.574219 15.007812 16.464844 15.007812 L 15.585938 15.007812 C 15.484375 15.007812 15.398438 15.015625 15.328125 15.027344 C 15.3125 15.027344 15.300781 15.027344 15.296875 15.027344 L 15.296875 14.832031 C 15.300781 14.832031 15.3125 14.832031 15.328125 14.832031 C 15.40625 14.84375 15.492188 14.851562 15.585938 14.851562 L 15.976562 14.851562 L 15.976562 14.484375 L 15.699219 14.484375 C 15.628906 14.484375 15.554688 14.488281 15.484375 14.5 C 15.46875 14.5 15.460938 14.5 15.457031 14.5 L 15.457031 14.308594 C 15.503906 14.320312 15.582031 14.324219 15.699219 14.324219 L 15.976562 14.324219 L 15.976562 14.011719 L 15.769531 14.011719 C 15.707031 14.011719 15.640625 14.015625 15.5625 14.027344 C 15.554688 14.027344 15.546875 14.027344 15.542969 14.027344 L 15.542969 13.90625 C 15.53125 13.917969 15.515625 13.933594 15.492188 13.957031 C 15.414062 14.03125 15.359375 14.082031 15.328125 14.105469 C 15.296875 14.046875 15.253906 13.992188 15.191406 13.941406 C 15.546875 13.757812 15.8125 13.464844 15.976562 13.054688 Z M 16.035156 13.273438 C 15.914062 13.484375 15.777344 13.667969 15.621094 13.824219 C 15.625 13.824219 15.632812 13.824219 15.640625 13.824219 C 15.683594 13.839844 15.738281 13.84375 15.804688 13.84375 L 16.300781 13.84375 C 16.34375 13.84375 16.390625 13.839844 16.441406 13.824219 C 16.457031 13.824219 16.46875 13.824219 16.472656 13.824219 C 16.269531 13.703125 16.125 13.519531 16.035156 13.273438 Z M 18.023438 13.039062 C 18.140625 13.050781 18.203125 13.0625 18.210938 13.074219 C 18.210938 13.074219 18.207031 13.078125 18.203125 13.089844 C 18.191406 13.113281 18.183594 13.132812 18.183594 13.152344 L 18.183594 13.476562 L 18.433594 13.476562 C 18.539062 13.476562 18.617188 13.46875 18.675781 13.457031 L 18.675781 13.644531 C 18.625 13.628906 18.542969 13.625 18.433594 13.625 L 18.183594 13.625 C 18.214844 13.824219 18.261719 13.984375 18.320312 14.105469 C 18.371094 14.042969 18.433594 13.933594 18.503906 13.78125 C 18.597656 13.851562 18.648438 13.902344 18.65625 13.929688 C 18.65625 13.9375 18.648438 13.941406 18.632812 13.949219 C 18.605469 13.960938 18.578125 13.976562 18.554688 14 C 18.488281 14.089844 18.425781 14.171875 18.367188 14.246094 C 18.457031 14.46875 18.578125 14.636719 18.726562 14.753906 C 18.683594 14.777344 18.636719 14.816406 18.582031 14.867188 C 18.574219 14.875 18.566406 14.878906 18.5625 14.878906 C 18.378906 14.683594 18.253906 14.394531 18.183594 14 L 18.183594 14.921875 C 18.183594 15.03125 18.09375 15.085938 17.917969 15.085938 C 17.917969 15.082031 17.914062 15.074219 17.910156 15.0625 C 17.894531 14.980469 17.875 14.921875 17.851562 14.886719 C 17.988281 14.914062 18.046875 14.886719 18.039062 14.796875 L 18.039062 14.324219 C 17.871094 14.546875 17.761719 14.714844 17.703125 14.824219 C 17.699219 14.835938 17.695312 14.84375 17.695312 14.84375 C 17.605469 14.753906 17.558594 14.707031 17.550781 14.703125 C 17.550781 14.703125 17.558594 14.695312 17.566406 14.683594 C 17.714844 14.5625 17.871094 14.367188 18.039062 14.097656 L 18.039062 13.625 L 17.894531 13.625 C 17.773438 13.625 17.691406 13.628906 17.652344 13.632812 L 17.652344 13.449219 C 17.703125 13.46875 17.785156 13.476562 17.886719 13.476562 L 18.039062 13.476562 L 18.039062 13.195312 C 18.039062 13.125 18.035156 13.070312 18.023438 13.039062 Z M 18.28125 13.160156 L 18.425781 13.074219 C 18.460938 13.121094 18.503906 13.203125 18.554688 13.328125 L 18.402344 13.40625 C 18.375 13.3125 18.335938 13.230469 18.28125 13.160156 Z M 17.050781 13.503906 L 17.050781 13.308594 C 17.074219 13.320312 17.140625 13.328125 17.25 13.328125 L 17.425781 13.328125 C 17.496094 13.328125 17.558594 13.320312 17.617188 13.308594 L 17.617188 13.503906 C 17.578125 13.488281 17.523438 13.484375 17.445312 13.484375 L 17.402344 13.484375 L 17.402344 13.886719 C 17.433594 13.886719 17.476562 13.882812 17.523438 13.878906 C 17.558594 13.878906 17.582031 13.878906 17.601562 13.878906 L 17.601562 14.0625 C 17.546875 14.050781 17.480469 14.042969 17.402344 14.042969 L 17.402344 14.5 C 17.507812 14.449219 17.582031 14.40625 17.632812 14.371094 C 17.625 14.4375 17.625 14.5 17.632812 14.550781 C 17.359375 14.699219 17.179688 14.808594 17.09375 14.878906 C 17.085938 14.882812 17.082031 14.886719 17.082031 14.886719 C 17.054688 14.792969 17.03125 14.726562 17.007812 14.683594 C 17.007812 14.683594 17.015625 14.683594 17.03125 14.675781 C 17.09375 14.652344 17.171875 14.617188 17.265625 14.570312 L 17.265625 14.042969 C 17.164062 14.042969 17.097656 14.050781 17.066406 14.0625 L 17.066406 13.871094 C 17.074219 13.871094 17.089844 13.875 17.109375 13.878906 C 17.160156 13.882812 17.214844 13.886719 17.265625 13.886719 L 17.265625 13.484375 L 17.25 13.484375 C 17.179688 13.484375 17.113281 13.488281 17.050781 13.503906 Z M 17.667969 13.898438 L 17.796875 13.808594 C 17.828125 13.863281 17.882812 13.957031 17.960938 14.097656 L 17.816406 14.195312 C 17.800781 14.148438 17.753906 14.050781 17.667969 13.898438 Z M 17.667969 13.898438"/></g></svg>